<?xml version="1.0" encoding="UTF-8"?>
<svg width="240" height="200" fill="none" version="1.1" viewBox="0 0 239.99999 200" xmlns="http://www.w3.org/2000/svg">
<g transform="matrix(4.21 0 0 4.21 -4.6283e-7 -1.7334)" clip-path="url(#a)" fill="#fff" fill-opacity=".25">
<path d="m57.73 4.7206c-4.3465-1.9944-9.0075-3.4637-13.881-4.3053-0.08875-0.016242-0.1774 0.024348-0.22312 0.10553-0.59945 1.0662-1.2634 2.4571-1.7284 3.5503-5.2416-0.78473-10.456-0.78473-15.591 0-0.46507-1.1175-1.1532-2.4841-1.7553-3.5503-0.045719-0.078473-0.13437-0.11906-0.22312-0.10553-4.8707 0.83888-9.5317 2.3082-13.881 4.3053-0.03765 0.016232-0.06992 0.043319-0.09134 0.078473-8.841 13.208-11.263 26.092-10.075 38.816 0.005376 0.06224 0.04032 0.12179 0.088705 0.15964 5.833 4.2836 11.483 6.8842 17.029 8.6079 0.08875 0.02709 0.18278-0.0054 0.23926-0.07847 1.3118-1.7913 2.4811-3.6801 3.4836-5.6665 0.05917-0.11632 0.0027-0.25434-0.11824-0.30035-1.8547-0.70356-3.6208-1.5614-5.3196-2.5355-0.13437-0.07847-0.14513-0.27067-0.02152-0.36268 0.3575-0.26788 0.71509-0.54662 1.0565-0.82804 0.06176-0.05139 0.14782-0.06224 0.22044-0.02978 11.161 5.0955 23.243 5.0955 34.272 0 0.07261-0.03515 0.15867-0.0243 0.22312 0.02709 0.34146 0.28143 0.69895 0.56285 1.0591 0.83073 0.12362 0.09202 0.11555 0.28421-0.01883 0.36268-1.6988 0.99306-3.4649 1.832-5.3223 2.5328-0.12093 0.04601-0.17472 0.18672-0.11555 0.30304 1.0241 1.9835 2.1934 3.8723 3.4809 5.6638 0.05379 0.07578 0.15051 0.10825 0.23926 0.08116 5.5722-1.7237 11.222-4.3243 17.055-8.6079 0.0511-0.03784 0.08337-0.09471 0.08875-0.15694 1.4219-14.71-2.3816-27.488-10.083-38.816-0.01883-0.037844-0.051-0.06493-0.08865-0.081162zm-34.942 31.147c-3.3601 0-6.1287-3.0848-6.1287-6.8733s2.7149-6.8733 6.1287-6.8733c3.4406 0 6.1824 3.1119 6.1286 6.8733 0 3.7885-2.7149 6.8733-6.1286 6.8733zm22.66 0c-3.36 0-6.1286-3.0848-6.1286-6.8733s2.7148-6.8733 6.1286-6.8733c3.4407 0 6.1824 3.1119 6.1287 6.8733 0 3.7885-2.688 6.8733-6.1287 6.8733z" fill="#fff" fill-opacity=".25"/>
</g>
<defs>
<clipPath id="a">
<rect width="71" height="55" fill="#fff"/>
</clipPath>
</defs>
</svg>
