<?xml version="1.0" encoding="UTF-8" standalone="no"?>
<svg
   xmlns:dc="http://purl.org/dc/elements/1.1/"
   xmlns:cc="http://creativecommons.org/ns#"
   xmlns:rdf="http://www.w3.org/1999/02/22-rdf-syntax-ns#"
   xmlns:svg="http://www.w3.org/2000/svg"
   xmlns="http://www.w3.org/2000/svg"
   xmlns:sodipodi="http://sodipodi.sourceforge.net/DTD/sodipodi-0.dtd"
   xmlns:inkscape="http://www.inkscape.org/namespaces/inkscape"
   id="Layer_1"
   viewBox="0 0 317.77914 283.83"
   version="1.1"
   inkscape:version="0.48.4 r9939"
   width="100%"
   height="100%"
   sodipodi:docname="discordlogo_mod.svg">
  <metadata
     id="metadata3009">
    <rdf:RDF>
      <cc:Work
         rdf:about="">
        <dc:format>image/svg+xml</dc:format>
        <dc:type
           rdf:resource="http://purl.org/dc/dcmitype/StillImage" />
        <dc:title />
      </cc:Work>
    </rdf:RDF>
  </metadata>
  <defs
     id="defs3007">
    <clipPath
       clipPathUnits="userSpaceOnUse"
       id="clipPath3793">
      <rect
         style="fill:#000000;fill-opacity:1;stroke:none"
         id="rect3795"
         width="154.45544"
         height="137.9538"
         x="-20.462046"
         y="-5.7877955" />
    </clipPath>
  </defs>
  <sodipodi:namedview
     pagecolor="#ffffff"
     bordercolor="#666666"
     borderopacity="1"
     objecttolerance="10"
     gridtolerance="10"
     guidetolerance="10"
     inkscape:pageopacity="0"
     inkscape:pageshadow="2"
     inkscape:window-width="2560"
     inkscape:window-height="1377"
     id="namedview3005"
     showgrid="false"
     inkscape:zoom="1.515"
     inkscape:cx="355.50818"
     inkscape:cy="196.14189"
     inkscape:window-x="1272"
     inkscape:window-y="-8"
     inkscape:window-maximized="1"
     inkscape:current-layer="Layer_1"
     fit-margin-top="0"
     fit-margin-left="0"
     fit-margin-right="0"
     fit-margin-bottom="0" />
  <style
     id="style2999">.st0{fill:#FFFFFF;}</style>
  <path
     style="fill:#ffffff;fill-opacity:0.29100528;fill-rule:evenodd;stroke:none;opacity:1"
     d="m -58.740615,-44.71844 0,225.0625 228.374995,0 0,-225.0625 -228.374995,0 z m 47.500001,22.21875 133.999994,0 c 11.3,0 20.49375,9.2 20.59375,20.4999997 l 0,177.7812503 -21.59375,-18.6875 -12.09375,-11.09375 -12.8125,-11.8125 5.3125,18.3125 -113.406244,0 c -11.300001,0 -20.500001,-9.2 -20.500001,-20.5 l 0,-134.0000003 c 0,-11.2999997 9.2,-20.4999997 20.500001,-20.4999997 z m 358.093744,41.5 c -16.3,0 -32.09375,9.19375 -32.09375,26.59375 0,16.899996 12.98125,25.987496 27.28125,28.187496 7.3,1 15.41875,3.90625 15.21875,8.90625 -0.6,9.5 -20.19375,9.01875 -29.09375,-1.78125 l -14.21875,13.28125 c 8.3,10.700004 19.61875,16.093754 30.21875,16.093754 16.3,0 34.39375,-9.39375 35.09375,-26.593754 1,-21.7 -14.79375,-27.19375 -30.59375,-30.093746 -6.9,-1.5 -11.5125,-4.0125 -11.8125,-8.3125 0.4,-10.3 16.29375,-10.68125 25.59375,-0.78125 l 14.71875,-11.3125 c -9.2,-11.2 -19.6125,-14.1875 -30.3125,-14.1875 z m 75.1875,0.0937 c -17.8,0 -35.375,10.3125 -35.375,30.3125 l 0,30.593746 c 0,20.200004 17.6,30.281254 35,30.281254 11.2,0 24.6,-5.475 32,-19.875004 l -19.625,-9 c -4.8,12.3 -24.875,9.29375 -24.875,-1.40625 l 0,-30.593746 c 0,-11 19.78125,-13.5 25.78125,-2.5 l 18.3125,-7.40625 c -7.2,-15.8 -20.31875,-20.40625 -31.21875,-20.40625 z m 74.40625,0 c -18.4,0 -36.6875,10 -36.6875,30.5 l 0,30.312496 c 0,20.300004 18.40625,30.500004 36.90625,30.500004 18.4,0 36.6875,-10.2 36.6875,-30.500004 l 0,-30.312496 c 0,-20.4 -18.50625,-30.5 -36.90625,-30.5 z m -294.5,1.1875 0,37.312496 22.09375,19.90625 0,-36.218746 11.8125,0 c 7.5,0 11.1875,3.60625 11.1875,9.40625 l 0,27.718746 c 0,5.8 -3.4875,9.6875 -11.1875,9.6875 l -34,0 0,21.093754 33.1875,0 c 17.8,0.1 34.5,-8.7875 34.5,-29.187504 l 0,-29.812496 c 0.1,-20.8 -16.575,-29.90625 -34.375,-29.90625 l -33.21875,0 z m 79.71875,0 0,88.8125 22.375,0 0,-88.8125 -22.375,0 z m 344.5,0 0,37.312496 22.09375,19.90625 0,-36.218746 11.78125,0 c 7.5,0 11.21875,3.60625 11.21875,9.40625 l 0,27.718746 c 0,5.8 -3.51875,9.6875 -11.21875,9.6875 l -34,0 0,21.093754 33.3125,0 c 17.8,0.1 34.5,-8.7875 34.5,-29.187504 l 0,-29.812496 c 0,-20.8 -16.7,-29.90625 -34.5,-29.90625 l -33.1875,0 z m -80.90625,0.125 0,88.78125 22.6875,0 0,-28.187504 4,0 20.59375,28.187504 28,0 -24.1875,-30.500004 c 10.7,-3.4 17.40625,-12.69375 17.40625,-29.093746 -0.5,-20.8 -14.7,-29.1875 -33,-29.1875 l -35.5,0 z m -505.531246,3.375 c -2.8,0.0901 -14.774998,1.04375 -27.374998,10.40625 0,0 -14.4062503,25.912496 -14.4062503,57.812496 0,0 8.4,14.393754 30.5000003,15.093754 0,0 3.71875,-4.3875 6.71875,-8.187504 -12.7,-3.8 -17.5,-11.71875 -17.5,-11.71875 0,0 0.98125,0.71875 2.78125,1.71875 0.1,0 0.20625,0.0875 0.40625,0.1875 0.3,0.2 0.60625,0.3 0.90625,0.5 2.5,1.4 4.98125,2.50625 7.28125,3.40625 4.1,1.7 9.018748,3.18125 14.718748,4.28125 7.5,1.4 16.30625,1.925 25.90625,0.125 4.7,-0.9 9.499996,-2.2125 14.499996,-4.3125 3.5,-1.3 7.4,-3.20625 11.5,-5.90625 0,0 -5.025,8.1125 -18.125,11.8125 3,3.700004 6.625,8.000004 6.625,8.000004 22.1,-0.7 30.5,-15.100004 30.5,-15.000004 0,-31.9 -14.40625,-57.812496 -14.40625,-57.812496 -14.3,-10.7 -27.999996,-10.40625 -27.999996,-10.40625 l -1.40625,1.625 c 16.999996,5.1 24.906246,12.59375 24.906246,12.59375 -10.4,-5.6 -20.593746,-8.4 -30.093746,-9.5 -7.2,-0.8 -14.11875,-0.6125 -20.21875,0.1875 -0.6,0 -1.0875,0.11875 -1.6875,0.21875 -3.5,0.4 -12.018748,1.58125 -22.718748,6.28125 -3.7,1.6 -5.875,2.8125 -5.875,2.8125 0,0 8.1875,-7.9 26.187498,-13 l -1,-1.21875 c 0,0 -0.225,-0.0129 -0.625,0 z m 456.437496,15.8125 c 7.3,0 14.6875,3.1 14.6875,10 l 0,30.312496 c 0,6.4 -7.2125,9.6875 -14.3125,9.6875 -7.2,0 -14.375,-3.0875 -14.375,-9.6875 l 0,-30.312496 c 0,-6.5 7,-10 14,-10 z m 71.78125,1.6875 13.21875,0 c 14.1,0 14.1,20.312496 0,20.312496 l -13.21875,0 0,-20.312496 z M 37.665634,60.687806 c 5.7,0 10.2875,4.9 10.1875,11 0,6.1 -4.4875,11 -10.1875,11 -5.599998,0 -10.218748,-4.9 -10.218748,-11 0,-6.1 4.51875,-11 10.218748,-11 z m 36.5,0 c 5.599996,0 10.187496,4.9 10.187496,11 0,6.1 -4.4875,11 -10.187496,11 -5.6,0 -10.21875,-4.9 -10.21875,-11 0,-6.1 4.51875,-11 10.21875,-11 z"
     id="rect3011"
     inkscape:connector-curvature="0"
     clip-path="url(#clipPath3793)"
     transform="matrix(2.0574163,0,0,2.0574163,128.56759,75.935931)" />
</svg>
