<?xml version="1.0" encoding="utf-8"?>
<!-- Generator: Adobe Illustrator 17.0.0, SVG Export Plug-In . SVG Version: 6.00 Build 0)  -->
<!DOCTYPE svg PUBLIC "-//W3C//DTD SVG 1.1//EN" "http://www.w3.org/Graphics/SVG/1.1/DTD/svg11.dtd">
<svg version="1.1" id="Layer_1" xmlns="http://www.w3.org/2000/svg" xmlns:xlink="http://www.w3.org/1999/xlink" x="0px" y="0px"
	 width="170px" height="170px" viewBox="0 0 170 170" enable-background="new 0 0 170 170" xml:space="preserve">
<path fill="#FFFFFF" d="M150.37,130.25c-2.45,5.66-5.35,10.87-8.71,15.66c-4.58,6.53-8.33,11.05-11.22,13.56
	c-4.48,4.12-9.28,6.23-14.42,6.35c-3.69,0-8.14-1.05-13.32-3.18c-5.197-2.12-9.973-3.17-14.34-3.17c-4.58,0-9.492,1.05-14.746,3.17
	c-5.262,2.13-9.501,3.24-12.742,3.35c-4.929,0.21-9.842-1.96-14.746-6.52c-3.13-2.73-7.045-7.41-11.735-14.04
	c-5.032-7.08-9.169-15.29-12.41-24.65c-3.471-10.11-5.211-19.9-5.211-29.378c0-10.857,2.346-20.221,7.045-28.068
	c3.693-6.303,8.606-11.275,14.755-14.925s12.793-5.51,19.948-5.629c3.915,0,9.049,1.211,15.429,3.591
	c6.362,2.388,10.447,3.599,12.238,3.599c1.339,0,5.877-1.416,13.57-4.239c7.275-2.618,13.415-3.702,18.445-3.275
	c13.63,1.1,23.87,6.473,30.68,16.153c-12.19,7.386-18.22,17.731-18.1,31.002c0.11,10.337,3.86,18.939,11.23,25.769
	c3.34,3.17,7.07,5.62,11.22,7.36C152.33,125.35,151.38,127.85,150.37,130.25L150.37,130.25z M119.11,7.24
	c0,8.102-2.96,15.667-8.86,22.669c-7.12,8.324-15.732,13.134-25.071,12.375c-0.119-0.972-0.188-1.995-0.188-3.07
	c0-7.778,3.386-16.102,9.399-22.908c3.002-3.446,6.82-6.311,11.45-8.597c4.62-2.252,8.99-3.497,13.1-3.71
	C119.06,5.082,119.11,6.165,119.11,7.24L119.11,7.24z"/>
</svg>
